<?xml version="1.0" encoding="UTF-8"?>
<svg xmlns="http://www.w3.org/2000/svg" version="1.1" viewBox="0 0 267.9 56.8">
  <defs>
    <style>
      .cls-1 {
        fill: #0062c2;
      }
    </style>
  </defs>
  <!-- Generator: Adobe Illustrator 28.7.1, SVG Export Plug-In . SVG Version: 1.2.0 Build 142)  -->
  <g>
    <g id="Layer_1">
      <g>
        <path class="cls-1" d="M30.4,56.2l-2.2-7.2h-13.4l-2.2,7.2H3.2l10.2-30.1,14.7-6.6,12.4,36.7h-10.1ZM21.4,27.1l-4.5,14.6h9.1s-4.6-14.6-4.6-14.6Z"/>
        <path class="cls-1" d="M74.4,50.4c-.9,1.2-2,2.3-3.3,3.2-.6.4-1.2.8-2,1.2-.7.4-1.6.7-2.5,1-.9.3-1.9.5-3,.7-1.1.2-2.3.3-3.6.3-2.6,0-5-.4-7.3-1.3-2.3-.8-4.3-2.1-6-3.7-1.7-1.7-3-3.7-4-6.2-1-2.5-1.5-5.3-1.5-8.5s.5-6.1,1.6-8.5c1.1-2.5,2.5-4.5,4.2-6.1s3.8-2.9,6.1-3.7,4.7-1.2,7.1-1.2,3.1.2,4.4.5c1.3.3,2.5.7,3.6,1.2,1,.5,1.9,1,2.7,1.5.8.5,1.4,1.1,1.9,1.5.5.5.9.9,1.1,1.2.2.3.4.5.4.5l-4.7,6.4c-.6-.8-1.3-1.6-2.2-2.3-.4-.3-.8-.6-1.3-.9s-1-.5-1.5-.7-1.2-.4-1.8-.5c-.6-.1-1.3-.2-2-.2-1.5,0-2.8.3-4,.8-1.2.5-2.2,1.3-3.1,2.2s-1.5,2.2-2,3.5c-.5,1.4-.7,2.9-.7,4.7s.2,3.3.7,4.7c.5,1.4,1.1,2.6,2,3.6.9,1,1.9,1.8,3.1,2.3s2.5.8,4,.8,2.8-.2,3.9-.7c1.1-.5,2.1-1,2.8-1.6.9-.7,1.7-1.4,2.3-2.3l4.6,6.6h0Z"/>
        <path class="cls-1" d="M101.8,56.2l-2.2-7.2h-13.4l-2.2,7.2h-9.3l12.9-38.1h11.5l12.9,38.1h-10.1,0ZM92.9,27.1l-4.5,14.6h9.1s-4.6-14.6-4.6-14.6Z"/>
        <path class="cls-1" d="M149.3,37.2c0,1.7-.1,3.3-.4,4.8-.3,1.5-.7,2.8-1.3,4-.6,1.2-1.2,2.3-1.9,3.3s-1.5,1.8-2.4,2.6c-1.7,1.5-3.7,2.7-6.1,3.4-2.3.7-5,1.1-8.1,1.1h-13.7V18.2h13.7c3.1,0,5.8.4,8.1,1.1,2.3.7,4.3,1.8,6.1,3.3.9.7,1.7,1.6,2.4,2.6.7,1,1.4,2.1,1.9,3.3.5,1.2,1,2.5,1.3,4s.5,3,.5,4.7h0ZM139.6,37.1c0-2.1-.3-3.9-.8-5.4-.6-1.5-1.3-2.6-2.2-3.5-.9-.9-2-1.6-3.2-2-1.2-.5-2.8-.7-4.5-.7h-4v23.1h4c1.7,0,3.2-.2,4.5-.7,1.3-.5,2.4-1.1,3.2-2s1.6-2.1,2.2-3.5c.6-1.5.8-3.2.8-5.3h0Z"/>
        <path class="cls-1" d="M155,56.2V18.2h25.7v7.4h-16.2v7.3h15.1v7.5h-15.1v8.3h16.8v7.6h-26.3Z"/>
        <path class="cls-1" d="M219.8,56.2l-.2-25.8-7.7,25.8h-8.5l-7.7-25.8-.3,25.8h-8.8l1.2-38.1h12l8.1,26.8,8.1-26.8h12l1.3,38.1h-9.4Z"/>
        <path class="cls-1" d="M254.8,40.9v15.3h-9.5v-15.3l-13.2-22.7h10.5l7.4,15.4,7.4-15.4h10.4l-13.1,22.7h0Z"/>
      </g>
      <g>
        <path d="M156.7,11.9l-2.1-4.9-.7,1.1v3.8h-2.5V.2h2.5v4.9l2.8-4.9h2.9l-3.2,4.8,3.3,6.9h-3.1,0Z"/>
        <path d="M169.3,6.1c0,1-.1,1.8-.3,2.6s-.5,1.4-.9,1.9c-.4.5-.9.9-1.5,1.2-.6.3-1.2.4-1.9.4s-1.4-.1-1.9-.4c-.6-.3-1.1-.6-1.4-1.2-.4-.5-.7-1.1-.9-1.9-.2-.8-.3-1.6-.3-2.6s.1-1.8.3-2.6c.2-.8.5-1.4.9-1.9.4-.5.9-.9,1.5-1.2.6-.3,1.2-.4,1.9-.4s1.4.1,1.9.4c.6.3,1.1.6,1.5,1.2.4.5.7,1.1.9,1.9.2.7.3,1.6.3,2.6h0ZM166.6,6c0-.6,0-1.1-.1-1.6s-.2-.9-.4-1.2c-.2-.3-.4-.6-.6-.8s-.6-.3-.9-.3-.6,0-.9.3-.4.4-.6.8-.3.7-.4,1.2c0,.5-.1,1-.1,1.6s0,1.1.1,1.6.2.9.4,1.2c.2.3.4.6.6.8.2.2.5.3.9.3s.6,0,.9-.3.5-.4.6-.8c.2-.3.3-.7.4-1.2,0-.5.1-1,.1-1.6h0Z"/>
        <path d="M176.8,11.9l-3.6-7.5v7.5h-2.4V.2h2.5l3.4,7.2V.2h2.4v11.7h-2.4,0Z"/>
        <path d="M181.4,11.9V.2h2.5v11.7s-2.5,0-2.5,0Z"/>
        <path d="M194.2,9.4c0,.2-.2.5-.4.8s-.4.6-.8.9-.7.5-1.2.7-1,.3-1.7.3-1.3-.1-1.9-.4c-.6-.2-1.1-.6-1.5-1.1-.4-.5-.7-1.1-1-1.9-.2-.8-.3-1.6-.3-2.7s.1-1.9.4-2.7c.2-.8.6-1.4,1-1.9.4-.5.9-.9,1.5-1.1s1.2-.4,1.9-.4,1.2,0,1.6.2c.4.2.8.4,1.1.6.3.2.5.5.7.8.2.3.3.6.4.8l-2.1,1.1c0-.1,0-.2-.2-.4s-.2-.3-.3-.5c-.1-.2-.3-.3-.5-.4-.2-.1-.5-.2-.8-.2-.7,0-1.3.3-1.6,1-.4.6-.6,1.6-.6,2.8s.2,2.3.6,2.9.9,1,1.6,1,.6,0,.8-.2.4-.3.6-.4c.1-.2.3-.3.3-.5,0-.2.1-.3.2-.4l2,1h0Z"/>
        <path d="M201.2,11.9l-.6-2.5h-3.1l-.6,2.5h-2.6l3.1-11.7h3.4l3.1,11.7h-2.8ZM199,2.5l-1.1,5h2.3l-1.1-5Z"/>
        <path d="M216.1,11.9V3.3c0,0-2,8.6-2,8.6h-2.2l-1.9-8.6v8.6h-2.4l.3-11.7h3.5l1.7,8.2,1.8-8.2h3.4l.3,11.7h-2.4Z"/>
        <path d="M220.5,11.9V.2h2.5v11.7s-2.5,0-2.5,0Z"/>
        <path d="M231.1,11.9l-3.6-7.5v7.5h-2.4V.2h2.5l3.4,7.2V.2h2.4v11.7h-2.4,0Z"/>
        <path d="M244.5,6.1c0,1-.1,1.8-.3,2.6s-.5,1.4-.9,1.9c-.4.5-.9.9-1.5,1.2-.6.3-1.2.4-1.9.4s-1.4-.1-1.9-.4c-.6-.3-1.1-.6-1.4-1.2-.4-.5-.7-1.1-.9-1.9-.2-.8-.3-1.6-.3-2.6s.1-1.8.3-2.6c.2-.8.5-1.4.9-1.9.4-.5.9-.9,1.5-1.2.6-.3,1.2-.4,1.9-.4s1.4.1,1.9.4c.6.3,1.1.6,1.5,1.2.4.5.7,1.1.9,1.9.2.7.3,1.6.3,2.6h0ZM241.8,6c0-.6,0-1.1-.1-1.6s-.2-.9-.4-1.2c-.2-.3-.4-.6-.6-.8s-.6-.3-.9-.3-.6,0-.9.3-.4.4-.6.8-.3.7-.4,1.2c0,.5-.1,1-.1,1.6s0,1.1.1,1.6.2.9.4,1.2c.2.3.4.6.6.8.2.2.5.3.9.3s.6,0,.9-.3.5-.4.6-.8c.2-.3.3-.7.4-1.2,0-.5.1-1,.1-1.6h0Z"/>
        <path d="M246.1,11.9V.2h2.5v9.5h3.7v2.2s-6.3,0-6.3,0Z"/>
        <path d="M256.5,2.3v9.6h-2.6V2.3h-2.5V.2h7.6v2.1h-2.5Z"/>
        <path d="M265.2,11.9l-.6-2.5h-3.1l-.6,2.5h-2.6l3.1-11.7h3.4l3.1,11.7h-2.8ZM263,2.5l-1.1,5h2.3l-1.1-5Z"/>
        <path d="M10.2,33.9c1.5-2.6-.4-4.4-.4-4.4,0,0-.1-.1-.2-.2.4-.5.5-1,.3-1.4-.2-.5-.8-.7-1.5-.6-2.1-6.1,8.9-12,8.9-12h0c.1,0,.2-.1.2-.1v.3c0,0-5.5,3-7.9,6.9h.6c0-.1,9.6-1.9,9.6-1.9l7.5-6.3,7.9-6.6-19.7,3.7L0,24l7.2-1.4c-1.1,1.9-.9,3.6-.5,5.2-.5.5-.7,1.1-.5,1.6.2.4.6.6,1.1.7,0,.2,0,.3.1.5.5,2.3-1.6,4.4-1.6,4.4h2c2,0,2.3-1.2,2.3-1.2Z"/>
        <path d="M23,17.9l-3.2,2.7h0l-4,.8-5.5,1,1.7,3.5c.1.2.3.4.6.5,1.5.7,5.2,0,9.2-2,4-1.9,6.9-4.3,7.4-5.9,0-.3,0-.6,0-.8l-1.7-3.5-4.3,3.6h0Z"/>
      </g>
    </g>
  </g>
</svg>